<svg width="290" height="62" viewBox="0 0 290 62" fill="none" xmlns="http://www.w3.org/2000/svg">
<g clip-path="url(#clip0_101_57)">
<path d="M62.1797 0H0V62H62.4958C70.634 41.0069 69.3324 17.6213 62.1797 0Z" fill="#CCD7E6"/>
<path d="M124.174 62H62.4959C70.2931 41.7631 69.6051 17.894 62.1797 0H124.174V62V62Z" fill="#003366"/>
<path fill-rule="evenodd" clip-rule="evenodd" d="M52.1822 27.7367V14.1132H56.0684C58.5724 14.1132 61.1199 15.7991 61.6219 19.2266C61.6219 19.2266 61.8017 20.2927 61.7707 20.9745C61.7831 21.5757 61.6219 22.5116 61.6219 22.5116C61.2996 25.6169 58.8699 27.7491 56.118 27.7491L52.1822 27.7367V27.7367ZM57.0911 31.2386H49.1079C48.5376 31.2386 48.0728 30.78 48.0728 30.1973V11.6153C48.0852 11.0637 48.4819 10.667 49.0335 10.6546H56.3349C61.2438 10.6546 64.5165 13.4066 65.4586 17.6213C65.4586 17.6213 65.8057 19.5179 65.8119 20.7452C65.8243 22.022 65.4896 23.9992 65.4896 23.9992C64.9565 27.9908 61.1385 31.2448 57.0911 31.2448V31.2386Z" fill="#003366"/>
<path fill-rule="evenodd" clip-rule="evenodd" d="M114.027 11.6649C114.529 11.1009 114.48 10.6484 113.922 10.6484H111.164C110.6 10.6484 110.321 10.5864 109.422 11.4913L101.724 19.8278L101.705 11.6649C101.705 11.1009 101.253 10.6484 100.689 10.6484H98.817C98.2591 10.6484 97.8005 11.1009 97.8005 11.6649V30.2097C97.8005 30.7738 98.2529 31.2262 98.817 31.2262H100.695C101.259 31.2262 101.712 30.7738 101.712 30.2097V25.3628L105.133 21.6687L110.414 30.2097C110.755 30.7738 111.238 31.2262 111.802 31.2262H114.622C115.186 31.2262 115.36 30.7738 115.019 30.2097L107.736 18.7618L114.033 11.6649H114.027Z" fill="white"/>
<path fill-rule="evenodd" clip-rule="evenodd" d="M69.7167 30.2717C69.7167 30.8357 70.1692 31.2882 70.7332 31.2882H72.791C73.355 31.2882 73.8137 30.7242 73.8137 30.1601V11.7269C73.8137 11.1628 73.3612 10.7104 72.7972 10.7104H70.7394C70.1754 10.7104 69.7229 11.1628 69.7229 11.7269L69.7105 30.2717H69.7167Z" fill="white"/>
<path fill-rule="evenodd" clip-rule="evenodd" d="M89.9288 11.7269C89.9288 11.1628 90.3813 10.7104 90.9453 10.7104H92.9783C93.5423 10.7104 93.9948 11.1628 93.9948 11.7269V30.2717C93.9948 30.8357 93.5361 31.2882 92.9783 31.2882H90.9639C90.3999 31.2882 89.9288 30.8357 89.9288 30.2717V22.6356H81.6791V30.2717C81.6791 30.8357 81.2266 31.2882 80.6626 31.2882H78.6296C78.0656 31.2882 77.6131 30.8357 77.6131 30.2717V11.7269C77.6131 11.1628 78.0656 10.7104 78.6296 10.7104H80.6688C81.2328 10.7104 81.6853 11.1628 81.6853 11.7269V19.1894H89.935V11.7269H89.9288Z" fill="white"/>
<path d="M136.285 22.7598H134.865V31.1335H136.285V22.7598Z" fill="black"/>
<path fill-rule="evenodd" clip-rule="evenodd" d="M142.681 31.127V27.123C142.681 26.1313 142.223 25.2202 141.113 25.2202C140.289 25.2202 139.706 25.6913 139.402 26.4351H139.378V25.3566H138.033V31.1332H139.378V28.6354C139.378 27.8606 139.768 26.4908 140.735 26.4908C140.871 26.4908 141.026 26.5032 141.125 26.6024C141.355 26.8193 141.33 27.5631 141.33 27.842V31.1456H142.675L142.681 31.127Z" fill="black"/>
<path fill-rule="evenodd" clip-rule="evenodd" d="M148.83 31.127V22.7534H147.485V26.0446H147.46C147.156 25.5115 146.636 25.2202 146.016 25.2202C144.417 25.2202 144.039 26.9681 144.039 28.2387C144.039 29.5093 144.33 31.2572 146.016 31.2572C146.549 31.2572 147.255 30.8295 147.46 30.3213H147.485V31.1208H148.83V31.127ZM147.485 28.2387C147.485 28.8709 147.33 30.2159 146.462 30.2159C145.526 30.2159 145.47 28.9081 145.47 28.2387C145.47 27.5321 145.495 26.2615 146.462 26.2615C147.429 26.2615 147.485 27.5693 147.485 28.2387Z" fill="black"/>
<path fill-rule="evenodd" clip-rule="evenodd" d="M155.146 31.127V25.3504H153.801V27.8482C153.801 28.623 153.41 29.999 152.443 29.999C152.307 29.999 152.152 29.9866 152.053 29.8874C151.823 29.6705 151.848 28.9267 151.848 28.6478V25.3442H150.503V29.3482C150.503 30.3461 150.962 31.251 152.071 31.251C152.883 31.251 153.478 30.7676 153.782 30.0362H153.807V31.1146H155.152L155.146 31.127Z" fill="black"/>
<path fill-rule="evenodd" clip-rule="evenodd" d="M160.203 29.5279C160.203 27.8792 157.668 27.4887 157.668 26.7264C157.668 26.3359 158.263 26.1933 158.567 26.1933C159.026 26.1933 159.453 26.3731 159.856 26.5838V25.4433C159.422 25.3194 158.995 25.2264 158.548 25.2264C157.47 25.2264 156.472 25.7223 156.472 26.9247C156.472 28.4556 158.957 29.0259 158.957 29.7015C158.957 30.1601 158.301 30.2221 157.96 30.2221C157.451 30.2221 156.956 30.0796 156.491 29.8688V31.0341C156.986 31.1952 157.495 31.2634 158.022 31.2634C159.15 31.2634 160.203 30.8171 160.203 29.5279V29.5279Z" fill="black"/>
<path fill-rule="evenodd" clip-rule="evenodd" d="M165.001 26.2863V25.3504H163.29V23.1686L161.945 23.9806V25.3504H160.817V26.2863H161.945V29.6705C161.945 30.8729 162.54 31.2572 163.718 31.2572C164.083 31.2572 164.455 31.22 164.821 31.158V30.2097C164.616 30.2593 164.412 30.3089 164.201 30.3089C163.364 30.3089 163.29 29.6891 163.29 29.0135V26.2801H165.001V26.2863Z" fill="black"/>
<path fill-rule="evenodd" clip-rule="evenodd" d="M169.166 26.6272V25.2202C168.193 25.2202 167.746 25.6231 167.3 26.4227H167.275V25.3566H165.93V31.1332H167.275V28.5982C167.275 27.2408 167.784 26.6334 169.166 26.6334V26.6272Z" fill="black"/>
<path fill-rule="evenodd" clip-rule="evenodd" d="M171.676 24.0922V22.7596H170.331V24.0922H171.676ZM171.676 31.127V25.3504H170.331V31.127H171.676Z" fill="black"/>
<path fill-rule="evenodd" clip-rule="evenodd" d="M177.787 27.8916V27.5631C177.787 26.1561 177.056 25.2202 175.593 25.2202C173.87 25.2202 173.114 26.2987 173.114 27.935C173.114 29.8378 173.976 31.2634 176.027 31.2634C176.573 31.2634 177.118 31.2014 177.639 31.0341V30.0982C177.298 30.2221 176.895 30.3151 176.535 30.3151C175.221 30.3151 174.36 29.1126 174.36 27.8854H177.781L177.787 27.8916ZM176.511 27.0797H174.397C174.459 26.497 174.905 26.0818 175.488 26.0818C176.108 26.0818 176.504 26.4598 176.504 27.0797H176.511Z" fill="black"/>
<path d="M183.372 27.3462H178.86V28.654H183.372V27.3462Z" fill="black"/>
<path fill-rule="evenodd" clip-rule="evenodd" d="M193.097 31.127V25.3504H191.752V27.8482C191.752 28.623 191.361 29.999 190.394 29.999C190.258 29.999 190.103 29.9866 190.004 29.8874C189.775 29.6705 189.799 28.9267 189.799 28.6478V25.3442H188.454V29.3482C188.454 30.3461 188.913 31.251 190.023 31.251C190.835 31.251 191.43 30.7676 191.733 30.0362H191.758V31.1146H193.103L193.097 31.127Z" fill="black"/>
<path fill-rule="evenodd" clip-rule="evenodd" d="M199.456 31.127V27.123C199.456 26.1313 198.997 25.2202 197.888 25.2202C197.064 25.2202 196.481 25.6913 196.177 26.4351H196.153V25.3566H194.808V31.1332H196.153V28.6354C196.153 27.8606 196.543 26.4908 197.51 26.4908C197.64 26.4908 197.801 26.5032 197.9 26.6024C198.13 26.8193 198.105 27.5631 198.105 27.842V31.1456H199.45L199.456 31.127Z" fill="black"/>
<path fill-rule="evenodd" clip-rule="evenodd" d="M205.605 31.127V22.7534H204.26V26.0446H204.235C203.931 25.5115 203.411 25.2202 202.791 25.2202C201.185 25.2202 200.814 26.9681 200.814 28.2387C200.814 29.5093 201.105 31.2572 202.791 31.2572C203.324 31.2572 204.03 30.8295 204.235 30.3213H204.26V31.1208H205.605V31.127ZM204.26 28.2387C204.26 28.8709 204.105 30.2159 203.243 30.2159C202.307 30.2159 202.245 28.9081 202.245 28.2387C202.245 27.5321 202.27 26.2615 203.243 26.2615C204.216 26.2615 204.26 27.5693 204.26 28.2387Z" fill="black"/>
<path fill-rule="evenodd" clip-rule="evenodd" d="M216.842 31.127V22.7596H215.423V26.2243H212.41V22.7596H210.991V31.127H212.41V27.309H215.423V31.127H216.842Z" fill="black"/>
<path fill-rule="evenodd" clip-rule="evenodd" d="M222.854 31.127V27.0115C222.854 25.6789 221.98 25.214 220.753 25.214C219.526 25.214 218.559 25.7223 218.559 27.0487H219.873C219.873 26.4784 220.177 26.1623 220.759 26.1623C221.429 26.1623 221.571 26.6458 221.571 27.216V27.7862C220.257 27.8234 218.342 28.0032 218.342 29.7387C218.342 30.7242 219.117 31.2572 220.04 31.2572C220.672 31.2572 221.255 31.0527 221.546 30.4576H221.571V31.127H222.86H222.854ZM221.565 28.5796C221.565 29.3172 221.261 30.3151 220.362 30.3151C219.916 30.3151 219.65 30.0858 219.65 29.6209C219.65 28.747 220.92 28.5796 221.565 28.5796Z" fill="black"/>
<path fill-rule="evenodd" clip-rule="evenodd" d="M229.17 31.127V27.123C229.17 26.1313 228.705 25.2202 227.602 25.2202C226.778 25.2202 226.195 25.6913 225.891 26.4351H225.866V25.3566H224.521V31.1332H225.866V28.6354C225.866 27.8606 226.257 26.4908 227.224 26.4908C227.36 26.4908 227.515 26.5032 227.614 26.6024C227.844 26.8193 227.819 27.5631 227.819 27.842V31.1456H229.164L229.17 31.127Z" fill="black"/>
<path fill-rule="evenodd" clip-rule="evenodd" d="M235.319 31.127V22.7534H233.974V26.0446H233.949C233.645 25.5115 233.124 25.2202 232.505 25.2202C230.906 25.2202 230.527 26.9681 230.527 28.2387C230.527 29.5093 230.819 31.2572 232.505 31.2572C233.038 31.2572 233.744 30.8295 233.949 30.3213H233.974V31.1208H235.319V31.127ZM233.974 28.2387C233.974 28.8709 233.819 30.2159 232.951 30.2159C232.015 30.2159 231.959 28.9081 231.959 28.2387C231.959 27.5321 231.984 26.2615 232.951 26.2615C233.918 26.2615 233.974 27.5693 233.974 28.2387Z" fill="black"/>
<path fill-rule="evenodd" clip-rule="evenodd" d="M241.318 27.8916V27.5631C241.318 26.1561 240.587 25.2202 239.118 25.2202C237.395 25.2202 236.645 26.2987 236.645 27.935C236.645 29.8378 237.507 31.2634 239.558 31.2634C240.104 31.2634 240.649 31.2014 241.17 31.0341V30.0982C240.829 30.2221 240.432 30.3151 240.066 30.3151C238.759 30.3151 237.891 29.1126 237.891 27.8854H241.312L241.318 27.8916ZM240.042 27.0797H237.928C237.99 26.497 238.436 26.0818 239.019 26.0818C239.639 26.0818 240.035 26.4598 240.035 27.0797H240.042Z" fill="black"/>
<path d="M244.077 22.7596H242.732V31.1332H244.077V22.7596Z" fill="black"/>
<path fill-rule="evenodd" clip-rule="evenodd" d="M249.202 29.5279C249.202 27.8792 246.667 27.4887 246.667 26.7264C246.667 26.3359 247.262 26.1933 247.566 26.1933C248.025 26.1933 248.452 26.3731 248.849 26.5838V25.4433C248.415 25.3194 247.988 25.2264 247.541 25.2264C246.463 25.2264 245.465 25.7223 245.465 26.9247C245.465 28.4556 247.95 29.0259 247.95 29.7015C247.95 30.1601 247.293 30.2221 246.953 30.2221C246.444 30.2221 245.942 30.0796 245.484 29.8688V31.0341C245.979 31.1952 246.494 31.2634 247.015 31.2634C248.143 31.2634 249.196 30.8171 249.196 29.5279H249.202Z" fill="black"/>
<path fill-rule="evenodd" clip-rule="evenodd" d="M255.413 31.127L253.082 27.8544L255.215 25.3566H253.603L251.731 27.5631V22.7596H250.386V31.127H251.731V28.2139H251.756L253.795 31.127H255.413Z" fill="black"/>
<path fill-rule="evenodd" clip-rule="evenodd" d="M260.526 31.127V27.0115C260.526 25.6789 259.652 25.214 258.425 25.214C257.198 25.214 256.231 25.7223 256.231 27.0487H257.539C257.539 26.4784 257.843 26.1623 258.425 26.1623C259.095 26.1623 259.237 26.6458 259.237 27.216V27.7862C257.929 27.8234 256.008 28.0032 256.008 29.7387C256.008 30.7242 256.783 31.2572 257.706 31.2572C258.338 31.2572 258.921 31.0527 259.212 30.4576H259.237V31.127H260.526V31.127ZM259.237 28.5796C259.237 29.3172 258.934 30.3151 258.035 30.3151C257.589 30.3151 257.316 30.0858 257.316 29.6209C257.316 28.747 258.593 28.5796 259.231 28.5796H259.237Z" fill="black"/>
<path fill-rule="evenodd" clip-rule="evenodd" d="M269.755 31.127V27.123C269.755 26.1313 269.297 25.2202 268.187 25.2202C267.462 25.2202 266.818 25.7037 266.563 26.3731H266.539C266.377 25.6355 265.832 25.2202 265.082 25.2202C264.375 25.2202 263.842 25.5983 263.564 26.2367H263.539V25.3504H262.194V31.127H263.539V28.6292C263.539 27.9598 263.83 26.4846 264.704 26.4846C264.834 26.4846 264.995 26.497 265.088 26.5962C265.318 26.8131 265.293 27.5569 265.293 27.8358V31.1394H266.638V28.6416C266.638 27.9722 266.929 26.497 267.803 26.497C267.933 26.497 268.094 26.5094 268.194 26.6086C268.423 26.8255 268.398 27.5693 268.398 27.8482V31.1518H269.743L269.755 31.127Z" fill="black"/>
<path fill-rule="evenodd" clip-rule="evenodd" d="M279.015 31.127V27.123C279.015 26.1313 278.557 25.2202 277.447 25.2202C276.722 25.2202 276.078 25.7037 275.823 26.3731H275.799C275.637 25.6355 275.092 25.2202 274.342 25.2202C273.642 25.2202 273.102 25.5983 272.824 26.2367H272.799V25.3504H271.454V31.127H272.799V28.6292C272.799 27.9598 273.09 26.4846 273.964 26.4846C274.1 26.4846 274.255 26.497 274.354 26.5962C274.584 26.8131 274.559 27.5569 274.559 27.8358V31.1394H275.904V28.6416C275.904 27.9722 276.195 26.497 277.069 26.497C277.199 26.497 277.361 26.5094 277.454 26.6086C277.683 26.8255 277.658 27.5693 277.658 27.8482V31.1518H279.003L279.015 31.127Z" fill="black"/>
<path fill-rule="evenodd" clip-rule="evenodd" d="M285.04 27.8916V27.5631C285.04 26.1561 284.315 25.2202 282.846 25.2202C281.123 25.2202 280.373 26.2987 280.373 27.935C280.373 29.8378 281.234 31.2634 283.286 31.2634C283.831 31.2634 284.377 31.2014 284.897 31.0341V30.0982C284.557 30.2221 284.16 30.3151 283.794 30.3151C282.48 30.3151 281.619 29.1126 281.619 27.8854H285.04V27.8916ZM283.763 27.0797H281.65C281.712 26.497 282.158 26.0818 282.741 26.0818C283.36 26.0818 283.757 26.4598 283.757 27.0797H283.763Z" fill="black"/>
<path fill-rule="evenodd" clip-rule="evenodd" d="M289.614 26.6272V25.2202C288.641 25.2202 288.195 25.6231 287.742 26.4227H287.718V25.3566H286.373V31.1332H287.718V28.5982C287.718 27.2408 288.226 26.6334 289.608 26.6334L289.614 26.6272Z" fill="black"/>
<path fill-rule="evenodd" clip-rule="evenodd" d="M140.667 14.7764C140.667 12.0492 139.904 10.6112 136.991 10.6112H134.915V18.9849H136.991C137.537 18.9849 138.095 18.9601 138.615 18.7928C140.363 18.2349 140.667 16.3879 140.667 14.7764V14.7764ZM139.099 14.7764C139.099 15.6875 139.061 17.1812 138.175 17.7267C137.822 17.9312 137.388 17.9808 136.985 17.9808H136.328V11.6215H136.985C138.975 11.6215 139.099 13.1772 139.099 14.7764Z" fill="black"/>
<path fill-rule="evenodd" clip-rule="evenodd" d="M146.406 15.7495V15.421C146.406 14.014 145.681 13.0781 144.212 13.0781C142.489 13.0781 141.739 14.1565 141.739 15.799C141.739 17.7019 142.601 19.1213 144.652 19.1213C145.198 19.1213 145.743 19.0593 146.264 18.8919V17.956C145.923 18.08 145.526 18.1729 145.16 18.1729C143.853 18.1729 142.991 16.9705 142.991 15.7433H146.412L146.406 15.7495ZM145.136 14.9375H143.022C143.084 14.3549 143.53 13.9396 144.113 13.9396C144.733 13.9396 145.136 14.3177 145.136 14.9375Z" fill="black"/>
<path fill-rule="evenodd" clip-rule="evenodd" d="M152.4 18.9911V13.2144H151.055V15.7123C151.055 16.487 150.664 17.8568 149.697 17.8568C149.561 17.8568 149.406 17.8444 149.307 17.7453C149.078 17.5283 149.102 16.7845 149.102 16.5056V13.2082H147.757V17.2122C147.757 18.2039 148.216 19.115 149.319 19.115C150.131 19.115 150.726 18.6316 151.03 17.9002H151.055V18.9787H152.4V18.9911Z" fill="black"/>
<path fill-rule="evenodd" clip-rule="evenodd" d="M157.705 14.1442V13.2082H155.995V11.0265L154.65 11.8384V13.2082H153.522V14.1442H154.65V17.5283C154.65 18.7308 155.245 19.1151 156.422 19.1151C156.788 19.1151 157.16 19.0779 157.526 19.0159V18.0676C157.321 18.1172 157.117 18.1667 156.906 18.1667C156.069 18.1667 155.995 17.5469 155.995 16.8713V14.138H157.705V14.1442Z" fill="black"/>
<path fill-rule="evenodd" clip-rule="evenodd" d="M161.995 17.3858C161.995 15.7371 159.46 15.3466 159.46 14.5842C159.46 14.1937 160.055 14.0512 160.358 14.0512C160.817 14.0512 161.245 14.2309 161.647 14.4417V13.3012C161.214 13.1772 160.786 13.0843 160.34 13.0843C159.261 13.0843 158.263 13.5801 158.263 14.7825C158.263 16.3135 160.749 16.8837 160.749 17.5593C160.749 18.018 160.092 18.08 159.751 18.08C159.243 18.08 158.747 17.9312 158.282 17.7267V18.8919C158.778 19.0531 159.286 19.1212 159.813 19.1212C160.941 19.1212 161.995 18.675 161.995 17.3858Z" fill="black"/>
<path fill-rule="evenodd" clip-rule="evenodd" d="M167.666 15.1916C167.666 13.7723 166.879 13.0781 165.472 13.0781C163.736 13.0781 162.825 14.1689 162.825 15.8424C162.825 17.8568 163.854 19.1213 165.918 19.1213C166.488 19.1213 167.058 19.0221 167.604 18.8547V18.0304C167.288 18.1419 166.959 18.1729 166.631 18.1729C165.1 18.1729 164.251 17.0573 164.251 15.6007C164.251 14.9065 164.505 14.0202 165.354 14.0202C166.054 14.0202 166.228 14.5904 166.228 15.1854H167.66L167.666 15.1916Z" fill="black"/>
<path fill-rule="evenodd" clip-rule="evenodd" d="M173.288 18.9911V14.9871C173.288 13.9954 172.829 13.0843 171.719 13.0843C170.895 13.0843 170.312 13.5553 170.009 14.2991H169.984V10.6236H168.639V18.9973H169.984V16.4994C169.984 15.7247 170.374 14.3487 171.341 14.3487C171.472 14.3487 171.633 14.3611 171.732 14.4602C171.961 14.6772 171.936 15.421 171.936 15.6999V19.0035H173.281L173.288 18.9911Z" fill="black"/>
<path fill-rule="evenodd" clip-rule="evenodd" d="M179.312 15.7495V15.421C179.312 14.014 178.581 13.0781 177.118 13.0781C175.395 13.0781 174.645 14.1565 174.645 15.799C174.645 17.7019 175.507 19.1213 177.558 19.1213C178.104 19.1213 178.649 19.0593 179.17 18.8919V17.956C178.829 18.08 178.432 18.1729 178.066 18.1729C176.759 18.1729 175.897 16.9705 175.897 15.7433H179.318L179.312 15.7495ZM178.035 14.9375H175.922C175.984 14.3549 176.43 13.9396 177.013 13.9396C177.632 13.9396 178.029 14.3177 178.029 14.9375H178.035Z" fill="black"/>
</g>
<defs>
<clipPath id="clip0_101_57">
<rect width="289.614" height="62" fill="white"/>
</clipPath>
</defs>
</svg>
