<?xml version="1.0" encoding="UTF-8"?><svg id="Ebene_1" xmlns="http://www.w3.org/2000/svg" xmlns:xlink="http://www.w3.org/1999/xlink" viewBox="0 0 3079.88 563"><defs><style>.cls-1{clip-path:url(#clippath);}.cls-2{fill:none;}.cls-3{fill:#872657;}</style><clipPath id="clippath"><rect class="cls-2" width="3079.88" height="563"/></clipPath></defs><path class="cls-3" d="M2174.39,293.59c-1.4,12.88-6.01,22.74-13.82,29.56-7.81,6.83-18.21,10.25-31.2,10.25-9.07,0-17.1-2.27-24.06-6.8-6.98-4.54-12.36-10.96-16.17-19.28-3.81-8.31-5.74-17.82-5.8-28.52v-15.87c0-10.87,1.91-20.5,5.71-28.9,3.81-8.4,9.28-14.88,16.42-19.45,7.14-4.56,15.36-6.84,24.66-6.84,13.09,0,23.44,3.52,31.03,10.58s12,16.83,13.23,29.32h-10.42c-2.57-20.78-13.86-31.16-33.84-31.16-11.1,0-19.93,4.14-26.5,12.44-6.58,8.3-9.87,19.76-9.87,34.38v14.96c0,14.13,3.2,25.39,9.62,33.8,6.41,8.41,15.07,12.61,25.99,12.61s18.95-2.59,24.44-7.77c5.49-5.18,8.88-12.95,10.16-23.31h10.42Z"/><path class="cls-3" d="M2191.61,284.94c0-8.73,1.69-16.6,5.08-23.6,3.39-7,8.18-12.45,14.37-16.34,6.18-3.89,13.2-5.84,21.03-5.84,12.1,0,21.9,4.24,29.4,12.73,7.5,8.48,11.25,19.73,11.25,33.73v2.1c0,8.79-1.69,16.7-5.07,23.73-3.4,7.02-8.17,12.43-14.32,16.25-6.17,3.81-13.19,5.71-21.09,5.71-12.03,0-21.83-4.24-29.35-12.73-7.53-8.48-11.3-19.72-11.3-33.72v-2.02h0Zm10.08,2.78c0,10.86,2.81,19.77,8.44,26.75,5.63,6.97,13.01,10.46,22.13,10.46s16.43-3.49,22.05-10.46c5.63-6.98,8.45-16.18,8.45-27.59v-1.93c0-6.94-1.29-13.3-3.87-19.07-2.58-5.77-6.19-10.23-10.83-13.39-4.66-3.17-9.98-4.75-15.97-4.75-8.95,0-16.26,3.52-21.92,10.54-5.65,7.03-8.48,16.22-8.48,27.59v1.85h0Z"/><path class="cls-3" d="M2303.07,240.84l.33,15.54c3.42-5.6,7.67-9.87,12.77-12.81,5.09-2.93,10.72-4.41,16.88-4.41,9.74,0,17,2.74,21.75,8.23,4.76,5.49,7.17,13.72,7.23,24.7v59.63h-9.99v-59.72c-.06-8.12-1.78-14.17-5.17-18.14-3.39-3.98-8.81-5.97-16.25-5.97-6.22,0-11.72,1.95-16.51,5.84-4.79,3.9-8.32,9.15-10.62,15.75v62.24h-10v-90.88h9.58Z"/><path class="cls-3" d="M2397.55,240.84l.33,15.54c3.42-5.6,7.68-9.87,12.77-12.81,5.1-2.93,10.73-4.41,16.89-4.41,9.74,0,17,2.74,21.75,8.23,4.76,5.49,7.17,13.72,7.22,24.7v59.63h-9.99v-59.72c-.06-8.12-1.78-14.17-5.17-18.14-3.38-3.98-8.8-5.97-16.25-5.97-6.22,0-11.71,1.95-16.5,5.84-4.79,3.9-8.33,9.15-10.63,15.75v62.24h-10v-90.88h9.58Z"/><path class="cls-3" d="M2517.66,333.4c-7.73,0-14.71-1.9-20.96-5.71-6.24-3.81-11.09-9.11-14.57-15.92-3.46-6.8-5.21-14.43-5.21-22.89v-3.61c0-8.73,1.7-16.6,5.09-23.6,3.38-7,8.1-12.5,14.16-16.51,6.04-4,12.59-6.01,19.65-6.01,11.02,0,19.77,3.77,26.25,11.3,6.46,7.53,9.69,17.82,9.69,30.87v5.63h-64.84v1.92c0,10.31,2.95,18.89,8.86,25.75,5.91,6.86,13.34,10.29,22.3,10.29,5.38,0,10.12-.98,14.24-2.94,4.11-1.96,7.85-5.1,11.21-9.41l6.3,4.79c-7.39,10.7-18.11,16.05-32.17,16.05h0Zm-1.84-85.67c-7.57,0-13.94,2.78-19.12,8.32-5.18,5.54-8.32,12.99-9.45,22.34h54.52v-1.1c-.28-8.73-2.77-15.85-7.47-21.33-4.72-5.49-10.87-8.23-18.48-8.23h0Z"/><path class="cls-3" d="M2604.94,324.92c6.99,0,12.86-1.98,17.6-5.93,4.72-3.94,7.28-9.05,7.68-15.33h9.66c-.28,5.54-2.02,10.6-5.21,15.16-3.19,4.57-7.43,8.14-12.72,10.7-5.3,2.58-10.97,3.87-17.01,3.87-11.93,0-21.38-4.15-28.36-12.44-6.96-8.28-10.45-19.42-10.45-33.42v-3.03c0-8.96,1.57-16.88,4.7-23.77,3.14-6.89,7.63-12.21,13.49-15.95,5.84-3.76,12.69-5.63,20.53-5.63,9.97,0,18.19,2.97,24.66,8.9,6.46,5.94,9.92,13.75,10.37,23.44h-9.66c-.46-7.11-3.01-12.85-7.68-17.22-4.68-4.37-10.58-6.55-17.69-6.55-9.07,0-16.11,3.28-21.12,9.83-5.01,6.55-7.52,15.73-7.52,27.54v2.94c0,11.59,2.51,20.63,7.52,27.13,5.01,6.49,12.08,9.74,21.21,9.74h0Z"/><path class="cls-3" d="M2675.56,217.58v23.27h18.82v8.23h-18.82v60.63c0,5.05,.92,8.81,2.74,11.27,1.82,2.47,4.85,3.7,9.11,3.7,1.68,0,4.4-.28,8.15-.84l.41,8.16c-2.62,.95-6.21,1.42-10.74,1.42-6.89,0-11.9-2-15.03-6.01-3.15-4-4.72-9.9-4.72-17.68v-60.64h-16.71v-8.23h16.71v-23.27h10.08Z"/><path class="cls-3" d="M2714.62,214.59c0-1.89,.63-3.49,1.86-4.8,1.22-1.3,2.91-1.96,5.04-1.96s3.82,.66,5.08,1.96c1.26,1.31,1.89,2.9,1.89,4.8s-.63,3.48-1.89,4.76c-1.26,1.28-2.95,1.93-5.08,1.93s-3.82-.65-5.04-1.93c-1.23-1.27-1.86-2.86-1.86-4.76h0Zm11.85,117.13h-10.08v-90.88h10.08v90.88h0Z"/><path class="cls-3" d="M2763.34,240.84l.33,15.54c3.42-5.6,7.67-9.87,12.77-12.81,5.09-2.93,10.73-4.41,16.88-4.41,9.74,0,17,2.74,21.76,8.23,4.76,5.49,7.16,13.72,7.22,24.7v59.63h-9.99v-59.72c-.07-8.12-1.78-14.17-5.17-18.14-3.39-3.98-8.81-5.97-16.25-5.97-6.22,0-11.72,1.95-16.51,5.84-4.79,3.9-8.33,9.15-10.62,15.75v62.24h-10v-90.88h9.58Z"/><path class="cls-3" d="M2844.22,285.45c0-14.23,3.15-25.49,9.45-33.81,6.3-8.31,14.86-12.47,25.66-12.47,12.38,0,21.78,4.93,28.23,14.79l.5-13.11h9.41v89.03c0,11.7-3.28,20.97-9.84,27.8-6.55,6.83-15.42,10.24-26.62,10.24-6.33,0-12.35-1.41-18.1-4.24-5.74-2.83-10.26-6.59-13.56-11.29l5.62-6.06c7.11,8.74,15.57,13.11,25.37,13.11,8.4,0,14.95-2.48,19.65-7.43,4.71-4.95,7.14-11.83,7.31-20.62v-11.42c-6.44,8.95-15.82,13.44-28.14,13.44-10.52,0-18.97-4.2-25.37-12.6-6.38-8.4-9.57-19.73-9.57-34.02v-1.34h0Zm10.16,1.76c0,11.6,2.33,20.73,6.98,27.43s11.2,10.04,19.65,10.04c12.37,0,21.14-5.54,26.29-16.63v-42.24c-2.35-5.83-5.74-10.26-10.16-13.32-4.43-3.05-9.75-4.58-15.96-4.58-8.45,0-15.03,3.32-19.74,9.96-4.7,6.63-7.06,16.42-7.06,29.35h0Z"/><path class="cls-3" d="M2089.23,524.09v-122.29h34.19c10.01,0,19,2.28,26.96,6.85,7.94,4.56,14.15,11.1,18.6,19.61,4.45,8.51,6.67,18.2,6.67,29.06v11.26c0,10.92-2.21,20.61-6.63,29.07-4.42,8.45-10.66,14.97-18.69,19.56-8.04,4.6-17.26,6.89-27.67,6.89h-33.43Zm10.33-113.56v104.82h23.18c12.87,0,23.21-4.27,30.99-12.82,7.78-8.54,11.68-20.11,11.68-34.67v-10.76c0-14.06-3.84-25.33-11.51-33.79-7.68-8.46-17.78-12.73-30.32-12.78h-24.02Z"/><path class="cls-3" d="M2198.92,406.96c0-1.89,.62-3.49,1.86-4.8,1.22-1.3,2.91-1.96,5.03-1.96s3.83,.66,5.08,1.96c1.27,1.3,1.89,2.9,1.89,4.8s-.62,3.48-1.89,4.76c-1.25,1.28-2.95,1.92-5.08,1.92s-3.81-.64-5.03-1.92c-1.24-1.27-1.86-2.86-1.86-4.76h0Zm11.84,117.13h-10.07v-90.88h10.07v90.88h0Z"/><path class="cls-3" d="M2234.03,477.81c0-14.23,3.15-25.49,9.45-33.81,6.3-8.31,14.85-12.47,25.66-12.47,12.37,0,21.79,4.93,28.22,14.79l.5-13.11h9.42v89.03c0,11.7-3.28,20.97-9.83,27.8-6.56,6.83-15.43,10.24-26.63,10.24-6.33,0-12.36-1.41-18.1-4.24-5.74-2.83-10.26-6.59-13.56-11.29l5.62-6.06c7.11,8.74,15.57,13.11,25.37,13.11,8.4,0,14.95-2.48,19.65-7.43,4.71-4.95,7.15-11.83,7.31-20.62v-11.42c-6.44,8.95-15.82,13.44-28.14,13.44-10.53,0-18.98-4.2-25.36-12.6-6.38-8.4-9.58-19.73-9.58-34.02v-1.34h0Zm10.17,1.76c0,11.6,2.32,20.73,6.97,27.43,4.65,6.69,11.2,10.04,19.65,10.04,12.37,0,21.14-5.54,26.29-16.63v-42.24c-2.36-5.83-5.74-10.26-10.17-13.32-4.41-3.05-9.74-4.58-15.95-4.58-8.45,0-15.03,3.32-19.74,9.96-4.7,6.63-7.05,16.42-7.05,29.35h0Z"/><path class="cls-3" d="M2332.89,406.96c0-1.89,.62-3.49,1.85-4.8,1.22-1.3,2.91-1.96,5.04-1.96s3.82,.66,5.08,1.96c1.27,1.3,1.89,2.9,1.89,4.8s-.62,3.48-1.89,4.76c-1.26,1.28-2.95,1.92-5.08,1.92s-3.82-.64-5.04-1.92c-1.23-1.27-1.85-2.86-1.85-4.76h0Zm11.84,117.13h-10.08v-90.88h10.08v90.88h0Z"/><path class="cls-3" d="M2387.65,409.94v23.27h18.82v8.23h-18.82v60.63c0,5.05,.92,8.81,2.74,11.27,1.81,2.47,4.85,3.7,9.1,3.7,1.69,0,4.4-.28,8.16-.84l.41,8.16c-2.62,.95-6.21,1.42-10.75,1.42-6.88,0-11.89-2-15.03-6.01-3.14-4-4.7-9.9-4.7-17.68v-60.64h-16.72v-8.23h16.72v-23.27h10.07Z"/><path class="cls-3" d="M2484.67,524.09c-1.02-2.86-1.66-7.08-1.94-12.69-3.53,4.59-8.03,8.14-13.48,10.63-5.45,2.49-11.24,3.74-17.35,3.74-8.73,0-15.8-2.44-21.2-7.31-5.41-4.87-8.11-11.03-8.11-18.48,0-8.85,3.68-15.84,11.05-21,7.36-5.15,17.62-7.72,30.78-7.72h18.22v-10.33c0-6.5-2-11.6-6-15.33-4-3.72-9.84-5.58-17.51-5.58-7,0-12.79,1.79-17.38,5.37-4.6,3.59-6.9,7.9-6.9,12.94l-10.07-.09c0-7.22,3.35-13.48,10.07-18.77,6.73-5.29,14.98-7.94,24.78-7.94s18.13,2.54,23.99,7.6c5.84,5.07,8.86,12.14,9.02,21.21v43.01c0,8.79,.93,15.37,2.77,19.73v1.01h-10.74Zm-31.59-7.22c6.72,0,12.72-1.63,18.01-4.88,5.31-3.25,9.15-7.58,11.55-13.01v-20h-17.97c-10.02,.12-17.86,1.95-23.51,5.5-5.66,3.56-8.49,8.44-8.49,14.66,0,5.09,1.89,9.32,5.67,12.68,3.78,3.36,8.7,5.04,14.74,5.04h0Z"/><polygon class="cls-3" points="2530.68 524.09 2520.61 524.09 2520.61 395.08 2530.68 395.08 2530.68 524.09 2530.68 524.09"/><polygon class="cls-3" points="2692.8 524.09 2682.38 524.09 2682.38 465.46 2612.5 465.46 2612.5 524.09 2602.16 524.09 2602.16 401.8 2612.5 401.8 2612.5 456.73 2682.38 456.73 2682.38 401.8 2692.8 401.8 2692.8 524.09 2692.8 524.09"/><path class="cls-3" d="M2756.72,525.77c-7.74,0-14.72-1.9-20.96-5.71-6.25-3.81-11.1-9.11-14.58-15.92-3.47-6.8-5.21-14.43-5.21-22.89v-3.61c0-8.73,1.7-16.6,5.08-23.6,3.4-7,8.11-12.49,14.16-16.5,6.05-4,12.6-6.01,19.66-6.01,11.02,0,19.77,3.77,26.24,11.3,6.47,7.53,9.7,17.82,9.7,30.87v5.63h-64.84v1.92c0,10.31,2.95,18.89,8.86,25.75,5.91,6.86,13.34,10.29,22.3,10.29,5.38,0,10.12-.98,14.24-2.94,4.11-1.96,7.85-5.1,11.21-9.41l6.3,4.79c-7.39,10.7-18.11,16.05-32.16,16.05h0Zm-1.85-85.67c-7.57,0-13.94,2.78-19.11,8.32-5.18,5.54-8.33,12.99-9.46,22.34h54.52v-1.1c-.28-8.73-2.77-15.84-7.48-21.33-4.7-5.49-10.86-8.23-18.47-8.23h0Z"/><path class="cls-3" d="M2867.75,524.09c-1.01-2.86-1.65-7.08-1.94-12.69-3.52,4.59-8.02,8.14-13.47,10.63-5.46,2.49-11.24,3.74-17.35,3.74-8.74,0-15.81-2.44-21.21-7.31-5.4-4.87-8.1-11.03-8.1-18.48,0-8.85,3.68-15.84,11.04-21,7.36-5.15,17.62-7.72,30.79-7.72h18.22v-10.33c0-6.5-2.01-11.6-6.01-15.33-4-3.72-9.83-5.58-17.5-5.58-7.01,0-12.8,1.79-17.39,5.37-4.6,3.59-6.89,7.9-6.89,12.94l-10.08-.09c0-7.22,3.36-13.48,10.08-18.77,6.72-5.29,14.98-7.94,24.78-7.94s18.13,2.54,23.98,7.6c5.85,5.07,8.86,12.14,9.03,21.21v43.01c0,8.79,.92,15.37,2.77,19.73v1.01h-10.75Zm-31.58-7.22c6.72,0,12.72-1.63,18.01-4.88,5.3-3.25,9.14-7.58,11.55-13.01v-20h-17.98c-10.02,.12-17.85,1.95-23.51,5.5-5.66,3.56-8.48,8.44-8.48,14.66,0,5.09,1.89,9.32,5.67,12.68,3.77,3.36,8.69,5.04,14.74,5.04h0Z"/><polygon class="cls-3" points="2913.77 524.09 2903.69 524.09 2903.69 395.08 2913.77 395.08 2913.77 524.09 2913.77 524.09"/><path class="cls-3" d="M2956.69,409.94v23.27h18.82v8.23h-18.82v60.63c0,5.05,.92,8.81,2.74,11.27,1.81,2.47,4.85,3.7,9.1,3.7,1.69,0,4.4-.28,8.16-.84l.41,8.16c-2.62,.95-6.21,1.42-10.75,1.42-6.88,0-11.89-2-15.03-6.01-3.14-4-4.71-9.9-4.71-17.68v-60.64h-16.71v-8.23h16.71v-23.27h10.08Z"/><path class="cls-3" d="M3006.34,448.58c3.3-5.43,7.53-9.63,12.68-12.6,5.15-2.97,10.78-4.45,16.88-4.45,9.75,0,17,2.74,21.76,8.23,4.75,5.49,7.17,13.72,7.22,24.7v59.63h-9.99v-59.72c-.07-8.12-1.78-14.17-5.17-18.14-3.39-3.98-8.8-5.96-16.25-5.96-6.22,0-11.71,1.95-16.5,5.84-4.79,3.9-8.33,9.15-10.63,15.75v62.24h-10v-129.01h10v53.51h0Z"/><g class="cls-1"><path class="cls-3" d="M405.24,199.14c0-34.39-3.58-73.01-28.72-118.8C336.52,7.5,256.02,4.4,210.05,3.33c-42.54-.99-158.17,0-185.44,0-4.98,0-9.05,4.07-9.06,9.05,0,0-.68,376.29-.68,501.12,0,4.98,4.06,9.05,9.03,9.05,11.3,0,161.69,.71,188.59,0,73.98-1.95,122.49-19.88,157.84-67.58,31.38-42.35,34.9-98.15,34.9-136.43v-119.4h0Zm-93.06,104.57c0,38.39-.82,75.18-24.35,103.28-23.52,28.1-63.88,30.77-96.17,30.77H108.1V88.12s43.33,0,79.88,0c30.11,0,77.24-1.14,105.51,38.64,8.86,12.46,18.63,26.26,18.63,79.93,0,29.44,.05,97.01,.05,97.01h0Z"/><path class="cls-3" d="M566.75,522.54V87.72h194.98c23.7,0,85.74-1.25,112.41,23.12,26.67,24.37,25.99,78.61,25.99,114.02v297.69h93.14s-.18-288.35-.18-307.87c0-39.92,.18-112-40.92-158.35C898.97-3.66,809.33,2.92,756.9,2.92H486.29c-6.97,0-12.66,5.7-12.66,12.67v506.95h93.13Z"/></g><path class="cls-3" d="M1427.99,87.72h-272v212.35c0,23.71-1.25,85.74,23.12,112.41,24.36,26.67,78.62,24.98,114.01,25.99,35.84,1.03,134.72,0,134.72,0v84.23s-133.31,.28-152.83-.17c-40.95-.94-112,.17-158.34-40.93-59.99-53.2-53.41-142.84-53.41-195.27V15.71c0-6.97,5.7-12.66,12.67-12.66h352.06V87.72h0Z"/><path class="cls-3" d="M1884.88,132.59c0-37.33-3.71-64.83-21.55-88.7-17.31-23.17-44.43-40.78-88.56-40.78-11.17,0-47.28-.18-83.27-.27-35.99,.09-72.11,.27-83.27,.27-44.13,0-71.25,17.61-88.57,40.78-17.83,23.87-21.55,51.37-21.55,88.7l-3.63,389.95h92.95l1.55-182.24h205.03l1.55,182.24h92.95l-3.63-389.95h0Zm-294.91,121.69l1.09-117.8c0-12.94-.83-30.01,6.74-39.09,6.46-7.76,14.48-8.98,27.08-9.66,17.04-.93,42.24-.8,67.18-.93,24.94,.12,48.82,0,66.05,.93,12.61,.68,20.63,1.9,27.09,9.66,7.57,9.08,6.74,26.15,6.74,39.09l1.09,117.8h-203.06Z"/><path class="cls-3" d="M1241.58,212.01s.01,46.98,.01,62.64c0,12.1,9.9,22,22.01,22.01,37.04,.02,148.19,.14,148.19,.14v-84.79h-170.21Z"/><path class="cls-3" d="M778.01,202.77c0-12.11-9.9-22.01-22.01-22.01h-67.12v341.79h89.13s0-239.83,0-319.77h0Z"/></svg>