<?xml version="1.0" encoding="UTF-8" standalone="no"?>
<!-- Created with Inkscape (http://www.inkscape.org/) -->

<svg
   version="1.1"
   id="svg9"
   xml:space="preserve"
   width="784"
   height="136"
   viewBox="0 0 784 136"
   xmlns="http://www.w3.org/2000/svg"
   xmlns:svg="http://www.w3.org/2000/svg"><defs
     id="defs13" /><g
     id="g15"
     transform="matrix(1.3333333,0,0,-1.3333333,0,136)"><g
       id="g17"
       transform="scale(0.1)"><path
         d="M 977.41,7.37109 V 497.016 H 912.859 V 357.738 c 0,-81.242 2.168,-201.66 5.071,-261.8747 C 899.797,130.688 879.488,167.68 857.727,203.23 L 675.648,497.016 H 587.883 V 7.37109 h 65.285 V 164.777 c 0,77.625 -2.184,195.129 -5.082,247.364 15.961,-32.641 33.371,-66.012 55.852,-101.555 L 890.367,7.37109 h 87.043"
         style="fill:#23a23d;fill-opacity:1;fill-rule:nonzero;stroke:none"
         id="path19" /><path
         d="m 1176.67,470.176 c 0,23.937 -19.59,42.07 -43.52,42.07 -23.94,0 -43.52,-18.863 -43.52,-42.07 0,-23.946 19.58,-42.805 43.52,-42.805 23.93,0 43.52,19.59 43.52,42.805 z M 1165.79,7.37109 V 367.891 h -65.28 V 7.37109 h 65.28"
         style="fill:#23a23d;fill-opacity:1;fill-rule:evenodd;stroke:none"
         id="path21" /><path
         d="m 1562.42,222.813 c 0,82.695 -42.8,151.605 -144.35,151.605 -102.29,0 -161.04,-80.512 -161.04,-188.598 0,-126.945 59.48,-184.980156 170.47,-184.980156 44.97,0 87.04,7.980466 121.86,22.492156 l -5.8,52.9532 C 1514.54,62.5039 1475.37,53.793 1438.38,53.793 c -76.9,0 -116.79,41.3515 -113.89,137.828 h 235.75 c 1.45,12.328 2.18,22.492 2.18,31.192 z m -66.74,15.23 h -168.29 c 7.25,52.961 40.62,88.504 87.77,88.504 50.78,0 81.97,-35.543 80.52,-88.504"
         style="fill:#23a23d;fill-opacity:1;fill-rule:evenodd;stroke:none"
         id="path23" /><path
         d="M 1938.06,7.37109 V 536.906 h -65.28 V 369.34 c -21.76,2.18 -41.35,3.629 -60.94,3.629 -113.88,0 -186.43,-76.164 -186.43,-202.379 0,-105.1877 44.26,-169.750156 132.75,-169.750156 56.58,0 100.84,31.921856 121.14,80.523456 l 1.46,-0.7305 c -4.37,-21.0273 -5.81,-52.9531 -5.81,-73.26171 z M 1872.78,193.801 c 0,-63.113 -33.38,-139.2776 -98.66,-139.2776 -54.4,0 -79.79,44.25 -79.79,121.8676 0,103.734 45.7,145.078 114.62,145.078 20.3,0 42.07,-2.184 63.83,-7.985 V 193.801"
         style="fill:#23a23d;fill-opacity:1;fill-rule:evenodd;stroke:none"
         id="path25" /><path
         d="m 2334.61,222.813 c 0,82.695 -42.8,151.605 -144.35,151.605 -102.29,0 -161.04,-80.512 -161.04,-188.598 0,-126.945 59.48,-184.980156 170.47,-184.980156 44.97,0 87.04,7.980466 121.86,22.492156 l -5.8,52.9532 C 2286.73,62.5039 2247.56,53.793 2210.57,53.793 c -76.89,0 -116.78,41.3515 -113.89,137.828 h 235.75 c 1.46,12.328 2.18,22.492 2.18,31.192 z m -66.74,15.23 h -168.29 c 7.26,52.961 40.63,88.504 87.78,88.504 50.77,0 81.96,-35.543 80.51,-88.504"
         style="fill:#23a23d;fill-opacity:1;fill-rule:evenodd;stroke:none"
         id="path27" /><path
         d="m 2610.15,374.418 c -71.82,7.98 -108.81,-42.07 -124.05,-92.125 h -1.45 c 5.81,29.742 7.98,63.113 7.98,85.598 h -63.1 V 7.37109 h 65.28 V 152.449 c 0,115.336 36.28,171.199 112.44,158.137 l 2.9,63.832"
         style="fill:#23a23d;fill-opacity:1;fill-rule:nonzero;stroke:none"
         id="path29" /><path
         d="m 2897.19,115.457 c 0,121.133 -168.29,78.344 -168.29,157.406 0,31.192 23.93,51.504 71.81,51.504 23.94,0 50.06,-4.351 72.54,-11.601 l 1.45,54.402 c -21.76,4.352 -47.14,7.25 -68.91,7.25 -94.3,0 -144.35,-47.152 -144.35,-108.086 0,-126.934 167.57,-77.613 167.57,-158.125 0,-33.3711 -32.65,-55.1328 -80.53,-55.1328 -27.56,0 -56.58,5.0821 -79.06,12.3281 l -2.18,-58.03121 c 22.49,-4.34765 49.33,-6.531246 76.16,-6.531246 95.76,0 153.79,49.335956 153.79,114.617156"
         style="fill:#23a23d;fill-opacity:1;fill-rule:nonzero;stroke:none"
         id="path31" /><path
         d="m 3250.18,7.37109 c -0.72,31.19141 -1.45,69.63281 -1.45,103.73391 v 143.629 c 0,71.813 -29.74,120.414 -133.46,120.414 -47.89,0 -91.41,-11.609 -126.23,-26.121 l 6.53,-55.851 c 31.19,18.859 74.71,29.742 108.81,29.742 59.48,0 79.07,-26.844 79.07,-76.895 v -26.832 c -136.38,0 -216.89,-50.05 -216.89,-129.1285 0,-57.3008 40.62,-89.222656 100.1,-89.222656 59.48,0 105.18,34.089856 122.59,78.343756 h 1.45 c -3.62,-20.3086 -3.62,-46.4219 -3.62,-71.81251 z M 3183.45,166.957 c 0,-56.582 -39.17,-114.6132 -97.93,-114.6132 -33.37,0 -55.13,19.5898 -55.13,50.0512 0,32.64 27.56,71.093 153.06,71.093 v -6.531"
         style="fill:#23a23d;fill-opacity:1;fill-rule:evenodd;stroke:none"
         id="path33" /><path
         d="m 3603.25,21.1523 -5.08,56.5821 c -23.21,-12.3321 -55.12,-19.5781 -85.6,-19.5781 -79.79,0 -103,55.8517 -103,126.2147 0,81.961 35.54,135.645 108.09,135.645 28.29,0 55.12,-6.532 77.61,-15.231 l 7.25,57.305 c -25.38,7.25 -53.67,11.609 -81.97,11.609 -120.41,0 -179.89,-81.976 -179.89,-198.039 0,-132.7459 71.81,-173.37094 158.13,-173.37094 42.07,0 80.52,9.43364 104.46,18.86324"
         style="fill:#23a23d;fill-opacity:1;fill-rule:nonzero;stroke:none"
         id="path35" /><path
         d="M 3982.47,7.37109 V 259.813 c 0,63.835 -26.11,115.335 -108.8,115.335 -60.22,0 -104.46,-31.921 -125.5,-81.242 l -1.45,0.719 c 5.08,18.859 6.53,48.602 6.53,71.813 v 170.468 h -65.28 V 7.37109 h 65.28 V 180.738 c 0,79.797 42.79,140.008 102.28,140.008 47.88,0 61.66,-29.742 61.66,-80.523 V 7.37109 h 65.28"
         style="fill:#23a23d;fill-opacity:1;fill-rule:nonzero;stroke:none"
         id="path37" /><path
         d="m 4315.16,115.457 c 0,121.133 -168.28,78.344 -168.28,157.406 0,31.192 23.92,51.504 71.81,51.504 23.93,0 50.05,-4.351 72.53,-11.601 l 1.45,54.402 c -21.76,4.352 -47.14,7.25 -68.92,7.25 -94.29,0 -144.34,-47.152 -144.34,-108.086 0,-126.934 167.57,-77.613 167.57,-158.125 0,-33.3711 -32.65,-55.1328 -80.52,-55.1328 -27.57,0 -56.59,5.0821 -79.07,12.3281 l -2.18,-58.03121 c 22.49,-4.34765 49.33,-6.531246 76.16,-6.531246 95.76,0 153.79,49.335956 153.79,114.617156"
         style="fill:#23a23d;fill-opacity:1;fill-rule:nonzero;stroke:none"
         id="path39" /><path
         d="m 4686.29,222.813 c 0,82.695 -42.8,151.605 -144.35,151.605 -102.29,0 -161.04,-80.512 -161.04,-188.598 0,-126.945 59.48,-184.980156 170.47,-184.980156 44.97,0 87.04,7.980466 121.86,22.492156 l -5.8,52.9532 C 4638.41,62.5039 4599.24,53.793 4562.25,53.793 c -76.89,0 -116.79,41.3515 -113.89,137.828 h 235.75 c 1.45,12.328 2.18,22.492 2.18,31.192 z m -66.74,15.23 h -168.29 c 7.25,52.961 40.62,88.504 87.78,88.504 50.77,0 81.96,-35.543 80.51,-88.504"
         style="fill:#23a23d;fill-opacity:1;fill-rule:evenodd;stroke:none"
         id="path41" /><path
         d="M 5075.71,7.37109 V 259.813 c 0,63.835 -26.11,115.335 -108.8,115.335 -61.67,0 -105.91,-33.371 -126.95,-83.425 l -1.45,0.734 c 4.35,21.027 5.8,54.402 5.8,75.434 h -63.1 V 7.37109 h 65.28 V 180.738 c 0,79.797 42.79,140.008 102.28,140.008 47.88,0 61.66,-29.742 61.66,-80.523 V 7.37109 h 65.28"
         style="fill:#23a23d;fill-opacity:1;fill-rule:nonzero;stroke:none"
         id="path43" /><path
         d="m 738.473,645.719 v 26.91 H 607.465 v 315.844 h -32.5 V 645.719 h 163.508"
         style="fill:#231f20;fill-opacity:1;fill-rule:nonzero;stroke:none"
         id="path45" /><path
         d="m 957.129,645.719 c -0.504,22.847 -1.016,52.301 -1.016,78.203 v 96.98 c 0,46.715 -18.789,81.246 -85.808,81.246 -34.024,0 -62.969,-8.125 -86.832,-19.3 l 3.554,-28.938 c 22.34,14.723 52.805,22.34 77.18,22.34 45.191,0 59.918,-22.852 59.918,-63.98 v -22.344 c -101.555,0 -155.383,-37.067 -155.383,-88.352 0,-40.109 29.449,-59.914 68.555,-59.914 44.172,0 77.18,26.906 89.367,59.914 l 1.016,-0.511 c -2.543,-14.719 -3.047,-35.036 -3.047,-55.344 z M 924.125,762 c 0,-46.207 -31.484,-93.934 -79.211,-93.934 -26.406,0 -43.668,15.231 -43.668,40.11 0,24.879 21.832,57.375 122.879,57.375 V 762"
         style="fill:#231f20;fill-opacity:1;fill-rule:evenodd;stroke:none"
         id="path47" /><path
         d="m 1250.51,645.719 v 175.687 c 0,45.196 -17.77,81.246 -76.17,81.246 -44.68,0 -77.18,-24.879 -91.4,-63.472 l -1.01,0.511 c 3.04,15.739 4.57,41.129 4.57,58.391 H 1054 V 645.719 h 31.99 v 120.855 c 0,63.473 33.51,110.184 81.24,110.184 39.61,0 51.29,-24.879 51.29,-67.028 V 645.719 h 31.99"
         style="fill:#231f20;fill-opacity:1;fill-rule:nonzero;stroke:none"
         id="path49" /><path
         d="m 1532.6,645.719 v 370.671 h -31.99 V 898.082 c -18.29,2.039 -34.02,3.055 -49.77,3.055 -77.18,0 -128.46,-49.258 -128.46,-140.66 0,-73.633 30.47,-118.817 93.43,-118.817 40.62,0 74.14,24.367 87.85,62.457 l 1.01,-0.512 c -3.04,-15.746 -4.57,-41.636 -4.57,-57.886 z m -31.99,130.5 c 0,-45.192 -25.39,-108.664 -79.72,-108.664 -44.18,0 -64.49,36.05 -64.49,95.965 0,79.218 36.05,112.226 91.4,112.226 16.76,0 34.52,-2.031 52.81,-6.601 v -92.926"
         style="fill:#231f20;fill-opacity:1;fill-rule:evenodd;stroke:none"
         id="path51" /><path
         d="m 1972.28,898.082 h -34.53 L 1888.5,735.086 c -7.62,-25.383 -12.7,-40.625 -17.27,-58.902 h -0.5 c -4.07,14.73 -7.62,27.421 -18.29,59.918 l -52.81,161.98 h -38.58 l -52.3,-162.484 c -6.1,-19.293 -12.19,-40.114 -16.76,-58.903 h -0.51 c -4.06,15.235 -10.66,36.555 -16.75,58.903 L 1628,898.082 h -36.55 l 78.7,-252.363 h 38.6 l 49.75,157.41 c 6.61,21.332 13.21,42.148 18.79,63.473 h 0.51 c 4.07,-15.739 8.64,-30.977 13.71,-46.211 l 59.92,-174.672 h 38.08 l 82.77,252.363"
         style="fill:#231f20;fill-opacity:1;fill-rule:nonzero;stroke:none"
         id="path53" /><path
         d="m 2070.62,969.172 c 0,13.199 -10.16,22.855 -22.85,22.855 -12.7,0 -22.86,-10.156 -22.86,-22.855 0,-12.692 10.16,-22.852 22.86,-22.852 12.69,0 22.85,10.16 22.85,22.852 z m -7.11,-323.453 v 252.363 h -31.99 V 645.719 h 31.99"
         style="fill:#231f20;fill-opacity:1;fill-rule:evenodd;stroke:none"
         id="path55" /><path
         d="m 2279.16,902.148 c -55.34,6.602 -81.75,-33.003 -91.39,-70.582 l -1.02,0.508 c 4.57,22.34 6.6,48.242 6.6,66.008 h -32.5 V 645.719 h 31.99 v 100.539 c 0,87.847 27.42,134.058 84.8,124.914 l 1.52,30.976"
         style="fill:#231f20;fill-opacity:1;fill-rule:nonzero;stroke:none"
         id="path57" /><path
         d="m 2468.32,646.734 v 28.434 c -11.17,-3.043 -24.37,-4.57 -37.58,-4.57 -31.48,0 -40.11,12.187 -40.11,60.429 v 141.672 h 77.69 v 25.383 h -77.69 v 93.945 l -31.99,-8.64 v -85.305 h -57.37 v -25.383 h 57.88 V 715.281 c 0,-50.773 13.71,-73.117 62.96,-73.117 15.75,0 33.01,2.027 46.21,4.57"
         style="fill:#231f20;fill-opacity:1;fill-rule:nonzero;stroke:none"
         id="path59" /><path
         d="m 2677.41,719.852 c 0,87.336 -127.96,48.753 -127.96,113.742 0,26.406 20.3,43.164 59.41,43.164 17.77,0 36.55,-3.555 53.31,-8.629 l 1.52,28.434 c -16.25,3.558 -34.53,5.585 -50.27,5.585 -62.46,0 -96.47,-30.976 -96.47,-72.101 0,-90.895 127.45,-50.27 127.45,-114.766 0,-28.937 -27.42,-46.199 -66.52,-46.199 -19.8,0 -40.62,3.547 -56.87,8.117 l -1.02,-30.465 c 15.24,-3.554 34.53,-5.074 53.83,-5.074 64.99,0 103.59,35.035 103.59,78.192"
         style="fill:#231f20;fill-opacity:1;fill-rule:nonzero;stroke:none"
         id="path61" /><path
         d="m 2914.98,657.395 -3.04,27.933 c -17.78,-9.144 -43.17,-15.234 -67.03,-15.234 -64.49,0 -80.73,45.187 -80.73,99.523 0,63.977 28.43,106.633 85.3,106.633 22.34,0 43.67,-5.078 60.93,-12.191 l 3.56,28.437 c -18.29,5.586 -40.12,8.641 -60.94,8.641 -81.24,0 -122.88,-54.34 -122.88,-138.117 0,-97.497 54.84,-120.344 108.16,-120.344 31.99,0 59.92,8.117 76.67,14.719"
         style="fill:#231f20;fill-opacity:1;fill-rule:nonzero;stroke:none"
         id="path63" /><path
         d="m 3176.79,645.719 v 175.687 c 0,45.196 -17.77,81.246 -76.17,81.246 -44.17,0 -76.67,-24.879 -91.4,-63.976 l -1.01,0.504 c 3.04,12.699 4.06,33.008 4.06,50.269 v 126.941 h -31.99 V 645.719 h 31.99 v 120.855 c 0,63.473 33.52,110.184 81.25,110.184 39.61,0 51.28,-24.879 51.28,-67.028 V 645.719 h 31.99"
         style="fill:#231f20;fill-opacity:1;fill-rule:nonzero;stroke:none"
         id="path65" /><path
         d="m 3440.6,645.719 c -0.5,22.847 -1.02,52.301 -1.02,78.203 v 96.98 c 0,46.715 -18.79,81.246 -85.81,81.246 -34.02,0 -62.97,-8.125 -86.83,-19.3 l 3.56,-28.938 c 22.33,14.723 52.8,22.34 77.18,22.34 45.19,0 59.91,-22.852 59.91,-63.98 v -22.344 c -101.55,0 -155.38,-37.067 -155.38,-88.352 0,-40.109 29.45,-59.914 68.56,-59.914 44.17,0 77.18,26.906 89.36,59.914 l 1.02,-0.511 c -2.54,-14.719 -3.04,-35.036 -3.04,-55.344 z M 3407.59,762 c 0,-46.207 -31.48,-93.934 -79.21,-93.934 -26.4,0 -43.67,15.231 -43.67,40.11 0,24.879 21.84,57.375 122.88,57.375 V 762"
         style="fill:#231f20;fill-opacity:1;fill-rule:evenodd;stroke:none"
         id="path67" /><path
         d="m 3685.23,1014.36 c -13.71,3.05 -26.91,4.58 -41.64,4.58 -58.39,0 -93.94,-33.01 -93.94,-103.588 v -17.27 h -57.88 v -25.383 h 57.88 v -226.98 h 31.99 v 226.98 h 77.7 v 25.383 h -77.7 v 18.285 c 0,51.789 17.78,76.164 59.41,76.164 13.21,0 27.93,-1.527 41.13,-5.586 l 3.05,27.415"
         style="fill:#231f20;fill-opacity:1;fill-rule:nonzero;stroke:none"
         id="path69" /><path
         d="m 3822.7,646.734 v 28.434 c -11.17,-3.043 -24.38,-4.57 -37.58,-4.57 -31.48,0 -40.11,12.187 -40.11,60.429 v 141.672 h 77.69 v 25.383 h -77.69 v 93.945 l -31.99,-8.64 v -85.305 h -57.38 v -25.383 h 57.89 V 715.281 c 0,-50.773 13.71,-73.117 62.96,-73.117 15.75,0 33.01,2.027 46.21,4.57"
         style="fill:#231f20;fill-opacity:1;fill-rule:nonzero;stroke:none"
         id="path71" /><path
         d="m 4031.78,719.852 c 0,87.336 -127.96,48.753 -127.96,113.742 0,26.406 20.31,43.164 59.41,43.164 17.77,0 36.56,-3.555 53.32,-8.629 l 1.52,28.434 c -16.25,3.558 -34.52,5.585 -50.27,5.585 -62.46,0 -96.47,-30.976 -96.47,-72.101 0,-90.895 127.45,-50.27 127.45,-114.766 0,-28.937 -27.42,-46.199 -66.52,-46.199 -19.8,0 -40.62,3.547 -56.87,8.117 l -1.01,-30.465 c 15.23,-3.554 34.52,-5.074 53.82,-5.074 64.99,0 103.58,35.035 103.58,78.192"
         style="fill:#231f20;fill-opacity:1;fill-rule:nonzero;stroke:none"
         id="path73" /><path
         d="m 4288.66,645.719 -111.2,137.605 102.56,114.758 h -38.59 l -99.52,-114.758 v 233.066 h -32 V 645.719 h 32 V 779.777 L 4246,645.719 h 42.66"
         style="fill:#231f20;fill-opacity:1;fill-rule:nonzero;stroke:none"
         id="path75" /><path
         d="m 4505.82,645.719 c -0.5,22.847 -1.02,52.301 -1.02,78.203 v 96.98 c 0,46.715 -18.78,81.246 -85.8,81.246 -34.03,0 -62.98,-8.125 -86.84,-19.3 l 3.56,-28.938 c 22.33,14.723 52.8,22.34 77.17,22.34 45.2,0 59.92,-22.852 59.92,-63.98 v -22.344 c -101.55,0 -155.38,-37.067 -155.38,-88.352 0,-40.109 29.45,-59.914 68.56,-59.914 44.17,0 77.17,26.906 89.37,59.914 l 1.01,-0.511 c -2.54,-14.719 -3.05,-35.036 -3.05,-55.344 z M 4472.81,762 c 0,-46.207 -31.48,-93.934 -79.2,-93.934 -26.41,0 -43.68,15.231 -43.68,40.11 0,24.879 21.84,57.375 122.88,57.375 V 762"
         style="fill:#231f20;fill-opacity:1;fill-rule:evenodd;stroke:none"
         id="path77" /><path
         d="m 4956.11,645.719 v 175.183 c 0,57.375 -27.43,81.75 -74.65,81.75 -52.81,0 -80.23,-38.593 -88.86,-62.457 0,18.285 -10.66,62.457 -70.58,62.457 -42.66,0 -76.17,-24.879 -90.39,-63.472 l -1.01,0.511 c 3.04,16.25 4.57,41.129 4.57,58.391 h -32.5 V 645.719 h 31.99 v 119.832 c 0,65.508 35.55,111.207 79.72,111.207 41.64,0 48.75,-30.465 48.75,-66.516 V 645.719 h 31.99 v 119.832 c 0,69.57 38.59,111.207 80.22,111.207 39.11,0 48.75,-26.403 48.75,-67.028 V 645.719 h 32"
         style="fill:#231f20;fill-opacity:1;fill-rule:nonzero;stroke:none"
         id="path79" /><path
         d="m 5406.98,645.719 v 175.183 c 0,57.375 -27.42,81.75 -74.64,81.75 -52.81,0 -80.23,-38.593 -88.86,-62.457 0,18.285 -10.67,62.457 -70.59,62.457 -42.65,0 -76.16,-24.879 -90.38,-63.472 l -1.01,0.511 c 3.04,16.25 4.57,41.129 4.57,58.391 h -32.51 V 645.719 h 31.99 v 119.832 c 0,65.508 35.55,111.207 79.72,111.207 41.64,0 48.75,-30.465 48.75,-66.516 V 645.719 h 32 v 119.832 c 0,69.57 38.58,111.207 80.22,111.207 39.1,0 48.75,-26.403 48.75,-67.028 V 645.719 h 31.99"
         style="fill:#231f20;fill-opacity:1;fill-rule:nonzero;stroke:none"
         id="path81" /><path
         d="m 5685.21,800.59 c 0,54.336 -28.44,101.558 -96.98,101.558 -68.55,0 -109.18,-55.855 -109.18,-131.011 0,-88.856 40.11,-129.477 115.27,-129.477 31.48,0 58.91,5.586 81.75,14.719 l -3.05,28.437 c -18.28,-9.136 -46.71,-16.25 -73.12,-16.25 -58.9,0 -89.88,33.512 -86.82,115.27 h 171.11 c 1.02,7.105 1.02,13.203 1.02,16.754 z m -34.02,8.125 h -136.08 c 7.1,42.148 33.51,69.058 71.09,69.058 41.12,0 66,-28.433 64.99,-69.058"
         style="fill:#231f20;fill-opacity:1;fill-rule:evenodd;stroke:none"
         id="path83" /><path
         d="m 5878.04,902.148 c -55.34,6.602 -81.75,-33.003 -91.4,-70.582 l -1.01,0.508 c 4.57,22.34 6.6,48.242 6.6,66.008 h -32.5 V 645.719 h 31.99 v 100.539 c 0,87.847 27.42,134.058 84.8,124.914 l 1.52,30.976"
         style="fill:#231f20;fill-opacity:1;fill-rule:nonzero;stroke:none"
         id="path85" /><path
         d="m 345.879,987.5 h 99.816 V 7.22656 H 345.879 V 471.762 c 49.449,43.246 80.68,106.801 80.68,177.656 0,70.852 -31.231,134.406 -80.68,177.648 V 987.5"
         style="fill:#197229;fill-opacity:1;fill-rule:nonzero;stroke:none"
         id="path87" /><path
         d="m 8.19531,648.578 c 0,104.457 84.67579,189.129 189.12869,189.129 104.457,0 189.129,-84.672 189.129,-189.129 0,-104.453 -84.672,-189.129 -189.129,-189.129 -104.4529,0 -189.12869,84.676 -189.12869,189.129"
         style="fill:#23a23d;fill-opacity:1;fill-rule:nonzero;stroke:none"
         id="path89" /></g></g></svg>
